<?xml version="1.0" encoding="UTF-8"?><svg id="CIRCLE_OUTLINE_BLACK" xmlns="http://www.w3.org/2000/svg" viewBox="0 0 512 512"><circle cx="256" cy="256" r="256" fill="#0e1126"/><g><path d="M293.29883,253.23085c-46.38638-.00085-92.77276,.00194-139.15913-.00492-4.97215-.00073-7.43664-1.44788-8.44892-4.86765-1.23936-4.18691,1.00721-8.06471,5.31072-8.93618,1.47664-.29902,3.02939-.30465,4.54739-.30486,91.88313-.01319,183.76623-.01334,275.64937,.00139,1.51657,.00023,3.06836,.02937,4.5426,.33758,3.5626,.74479,5.80708,3.67552,5.63727,7.09646-.17539,3.53305-2.96046,6.35469-6.6342,6.62979-1.39086,.10415-2.79445,.04778-4.19225,.04782-45.75095,.00176-91.50191,.00144-137.25286,.00058Z" fill="#e1147b"/><path d="M276.71904,320.60324c-40.40938-.00009-80.81875,.00186-121.22813-.00205-6.76497-.00065-10.11621-2.33141-10.17656-7.04002-.0606-4.72777,3.28846-7.12533,10.03859-7.12572,81.07289-.00473,162.1458-.00559,243.21869,.00093,6.34302,.00051,9.3786,2.20282,9.50759,6.8021,.10413,3.7126-2.26826,6.6716-5.94976,7.19041-1.62419,.2289-3.29505,.16801-4.94473,.16834-40.15523,.0078-80.31047,.00608-120.4657,.00601Z" fill="#e1147b"/><path d="M197.81375,286.95308c-33.03526,.00012-66.07053,.00149-99.10579-.00428-1.52351-.00026-3.05866,.04275-4.56819-.12087-3.58223-.38823-6.13552-3.36584-6.156-7.03212-.01984-3.55108,2.30605-6.25319,5.94275-6.78685,1.12383-.16494,2.28068-.14217,3.42242-.14226,67.21401-.00647,134.42804-.0091,201.64205-.00205,6.27469,.00068,9.24672,2.33889,9.13947,7.09213-.08499,3.76643-2.51551,6.49623-6.26049,6.88527-1.51065,.15695-3.04547,.10692-4.5693,.10715-33.1623,.00501-66.32461,.0038-99.48692,.00389Z" fill="#e1147b"/><path d="M340.50359,340.23465c33.54201-.00021,67.084-.00184,100.62601,.00563,1.39565,.00033,2.83389-.11428,4.17858,.17151,3.37576,.71749,5.26762,2.91043,5.49948,6.37515,.22237,3.3225-1.91125,6.32151-5.16391,7.06377-1.58717,.3622-3.27752,.37158-4.92122,.37198-66.70284,.01681-133.40566,.01434-200.10851,.01395-.5082,0-1.01669,.00449-1.52455-.01001-5.26655-.1502-8.55174-2.99579-8.41159-7.28184,.13819-4.2261,3.18885-6.69987,8.43746-6.70222,33.79607-.01516,67.59216-.00773,101.38824-.00792Z" fill="#e1147b"/><path d="M264.77274,407.54498c20.72168,.00042,41.44333-.00927,62.16501,.00803,4.52316,.00377,7.03246,1.70213,7.80274,5.13539,1.00737,4.48992-1.74873,8.36839-6.44598,9.00979-.87578,.11958-1.77676,.07185-2.66611,.07192-40.68063,.00277-81.36126,.01246-122.04183-.03297-1.73337-.00193-3.59423-.20743-5.17257-.85889-3.27885-1.35334-4.92889-3.97389-4.33671-7.59601,.58473-3.57646,3.10271-5.66379,7.00525-5.69981,9.15236-.0845,18.30596-.03588,27.45906-.03739,12.07704-.00203,24.15409-.00051,36.23113-.00007Z" fill="#e1147b"/><path d="M342.45861,373.87066c20.19335-.00016,40.38672-.002,60.58007,.00428,1.26866,.0004,2.55777-.06748,3.80196,.12515,3.0739,.47594,5.08695,2.22969,5.66291,5.35102,.55696,3.01847-.19841,5.76163-3.01032,7.18268-1.83491,.92727-4.08134,1.45001-6.14484,1.45418-40.76755,.08231-81.53539,.08338-122.30294,.00047-2.06091-.00419-4.33171-.52106-6.1304-1.49262-2.71157-1.4647-3.61622-4.17692-2.95738-7.21194,.6627-3.053,2.628-4.87911,5.73563-5.30727,1.24923-.17211,2.53507-.10194,3.80425-.10224,20.32036-.00498,40.6407-.00352,60.96107-.0037Z" fill="#e1147b"/><path d="M158.94023,340.23956c15.87608-.00466,31.75235-.04154,47.62796,.0455,1.82941,.01001,3.8602,.32842,5.43608,1.17613,2.60667,1.40216,3.8013,4.20633,2.76848,6.83631-.82319,2.09616-2.77753,4.02909-4.70978,5.31018-1.30108,.86266-3.43836,.60596-5.2018,.60761-30.73605,.02915-61.47215,.0217-92.20824,.01672-1.01513-.00016-2.03727,.00782-3.04416-.09998-4.20535-.45033-7.15593-3.43443-7.07238-7.09841,.08993-3.94397,3.12137-6.75456,7.63266-6.76897,16.25692-.05197,32.5141-.02042,48.77118-.02508Z" fill="#e1147b"/><path d="M259.11938,380.86497c-.01313,3.94707-3.03774,7.11145-6.85408,7.17087-3.87985,.06037-7.2924-3.35922-7.24715-7.26212,.04395-3.78978,3.25207-6.87326,7.15118-6.87331,4.0027-.00005,6.96337,2.96678,6.95005,6.96455Z" fill="#e1147b"/><path d="M68.40303,286.89152c-4.07637-.00363-7.33566-3.25037-7.22377-7.19597,.10729-3.78322,3.34684-6.79463,7.27835-6.76578,3.98643,.02924,6.92824,3.02603,6.89195,7.02078-.0367,4.04034-2.94323,6.94453-6.94654,6.94097Z" fill="#e1147b"/><path d="M174.49571,421.74258c-3.81835,.00305-6.87107-3.10767-6.9289-7.06055-.05915-4.04276,2.78394-7.03997,6.74999-7.1159,4.18294-.08007,7.17991,2.91814,7.12098,7.12395-.05508,3.93109-3.12461,7.04945-6.94207,7.0525Z" fill="#e1147b"/><path d="M125.90878,320.53686c-3.96712,.0848-7.02563-2.83492-7.10637-6.78394-.08264-4.04199,2.72397-7.08325,6.66747-7.22491,4.11605-.14785,7.27002,2.87346,7.29613,6.98928,.02536,3.99717-2.84332,6.93377-6.85723,7.01957Z" fill="#e1147b"/><path d="M83.05879,354.14925c-4.02101,.00135-6.93512-2.93004-6.91578-6.9568,.01929-4.01727,2.956-6.93762,6.95926-6.92052,3.99389,.01707,6.93982,2.97332,6.93365,6.95797-.00616,3.98204-2.96665,6.91801-6.97713,6.91936Z" fill="#e1147b"/><path d="M125.73987,253.20425c-3.96782,.01199-6.94029-2.98967-6.93805-7.00617,.00222-3.98375,3.05382-7.01847,7.00798-6.96926,3.93209,.04895,6.98852,3.14436,6.95675,7.04552-.03232,3.96911-3.0222,6.91781-7.02668,6.92991Z" fill="#e1147b"/><path d="M295.39358,90.22053c-67.4057,0-122.57377,52.39536-126.99832,118.68019-.31091,4.65773,3.39587,8.60429,8.06397,8.60429h237.8687c4.6681,0,8.37487-3.94656,8.06397-8.60429-4.42455-66.28484-59.59262-118.68019-126.99832-118.68019Z" fill="#53cbc8"/></g></svg>