<?xml version="1.0" encoding="UTF-8"?><svg id="CIRCLE_OUTLINE_BLACK" xmlns="http://www.w3.org/2000/svg" viewBox="0 0 512 512"><circle cx="256" cy="256" r="256"/><g><path d="M344.05433,291.47624c-21.37678,.00149-48.5192-6.31468-79.30997-27.59698-31.01991-21.43927-62.95488-27.1402-94.91962-16.94653-23.93896,7.63297-38.69752,21.49209-38.84333,21.63121-3.35523,3.1871-8.65963,3.05616-11.84673-.29833-3.19008-3.35375-3.05616-8.65814,.29758-11.84747,.71122-.67625,17.73438-16.66309,45.30085-25.45365,25.55482-8.14704,65.30727-11.44499,109.5398,19.12781,73.32114,50.67593,120.82261,8.10761,122.81046,6.27079,3.38945-3.13205,8.68492-2.95052,11.83185,.4248,3.14693,3.37383,2.98772,8.64549-.37346,11.80655-.60855,.5721-15.18559,14.08305-40.36546,20.08528-6.86967,1.63819-14.96836,2.79652-24.12197,2.79652Z" fill="#55cfc7"/><path d="M272.01201,230.26212c68.39914,47.27383,114.32194,13.4068,121.79421,7.15535,2.05926-9.49211,3.15437-19.3443,3.15437-29.45352,0-76.36207-61.90368-138.26576-138.26536-138.26576S120.42988,131.60188,120.42988,207.96395c0,8.22888,.72238,16.28851,2.10093,24.12235,7.13675-5.54134,21.0658-14.93265,39.94141-20.95198,25.55482-8.1463,65.30578-11.44574,109.5398,19.12781Z" fill="#f1b606"/><path d="M380.33846,350.2955c-4.62739,0-8.3799-3.75176-8.3799-8.3799v-32.43864c0-4.62814,3.7525-8.3799,8.3799-8.3799s8.3799,3.75176,8.3799,8.3799v32.43864c0,4.62814-3.7525,8.3799-8.3799,8.3799Z" fill="#55cfc7"/><path d="M243.75444,350.2955c-4.62739,0-8.3799-3.75176-8.3799-8.3799v-58.77685c0-4.62814,3.7525-8.3799,8.3799-8.3799s8.3799,3.75176,8.3799,8.3799v58.77685c0,4.62814-3.7525,8.3799-8.3799,8.3799Z" fill="#55cfc7"/><path d="M277.96145,325.52405c-4.62739,0-8.3799-3.75176-8.3799-8.3799v-14.44982c0-4.62814,3.7525-8.3799,8.3799-8.3799s8.3799,3.75176,8.3799,8.3799v14.44982c0,4.62814-3.7525,8.3799-8.3799,8.3799Z" fill="#55cfc7"/><path d="M312.16995,408.684c-4.62739,0-8.3799-3.75176-8.3799-8.3799v-84.92908c0-4.62814,3.7525-8.3799,8.3799-8.3799s8.3799,3.75176,8.3799,8.3799v84.92908c0,4.62814-3.7525,8.3799-8.3799,8.3799Z" fill="#55cfc7"/><path d="M210.13664,442.30181c-4.62739,0-8.3799-3.75176-8.3799-8.3799v-166.46721c0-4.62814,3.7525-8.3799,8.3799-8.3799s8.3799,3.75176,8.3799,8.3799v166.46721c0,4.62814-3.7525,8.3799-8.3799,8.3799Z" fill="#55cfc7"/><path d="M345.78774,396.88861c-4.62739,0-8.3799-3.75176-8.3799-8.3799v-69.59469c0-4.62814,3.7525-8.3799,8.3799-8.3799s8.3799,3.75176,8.3799,8.3799v69.59469c0,4.62814-3.7525,8.3799-8.3799,8.3799Z" fill="#55cfc7"/><path d="M140.54122,355.01365c-4.62739,0-8.3799-3.75176-8.3799-8.3799v-58.38925c0-4.62814,3.7525-8.3799,8.3799-8.3799s8.3799,3.75176,8.3799,8.3799v58.38925c0,4.62814-3.7525,8.3799-8.3799,8.3799Z" fill="#55cfc7"/><path d="M175.92814,362.09089c-4.62739,0-8.3799-3.75176-8.3799-8.3799v-81.39008c0-4.62814,3.7525-8.3799,8.3799-8.3799s8.3799,3.75176,8.3799,8.3799v81.39008c0,4.62814-3.7525,8.3799-8.3799,8.3799Z" fill="#55cfc7"/></g></svg>